# Blender 3.5.0
# www.blender.org
mtllib Shotgun.mtl
o Cube
v 1.000000 -1.000000 -1.000000
v 1.000000 1.000000 -1.000000
v 0.098589 -0.098589 1.648419
v 0.098589 0.098589 1.648419
v -1.000000 -1.000000 -1.000000
v -1.000000 1.000000 -1.000000
v -0.098589 -0.098589 1.648419
v -0.098589 0.098589 1.648419
v 1.000000 1.000000 1.000000
v 1.000000 -1.000000 1.000000
v -1.000000 -1.000000 1.000000
v -1.000000 1.000000 1.000000
v 0.390887 0.151103 1.657145
v 0.390887 -0.151103 1.657145
v 0.830448 -0.590664 1.000000
v 0.830448 0.590664 1.000000
v 0.151103 -0.390886 1.657145
v -0.151103 -0.390886 1.657145
v -0.590664 -0.830448 1.000000
v 0.590664 -0.830447 1.000000
v -0.151103 0.390886 1.657145
v 0.151103 0.390886 1.657145
v 0.590664 0.830448 1.000000
v -0.590664 0.830447 1.000000
v -0.390886 -0.151103 1.657145
v -0.390886 0.151103 1.657145
v -0.830448 0.590664 1.000000
v -0.830447 -0.590664 1.000000
v 0.221334 0.221334 1.918465
v 0.221334 -0.221334 1.918465
v -0.221334 -0.221334 1.918465
v -0.221334 0.221334 1.918465
vn 1.0000 -0.0000 -0.0000
vn -0.0000 -0.0000 1.0000
vn -1.0000 -0.0000 -0.0000
vn -0.0000 -0.0000 -1.0000
vn -0.0000 -1.0000 -0.0000
vn -0.0000 1.0000 -0.0000
vn 0.8312 -0.0000 0.5560
vn -0.0000 -0.8312 0.5560
vn -0.0000 0.8312 0.5560
vn -0.8312 -0.0000 0.5560
vn 0.8389 -0.0000 0.5443
vn 0.8501 0.2520 0.4624
vn 0.8501 -0.2520 0.4624
vn -0.0000 -0.8389 0.5443
vn 0.2520 -0.8501 0.4624
vn -0.2520 -0.8501 0.4624
vn -0.0000 0.8389 0.5443
vn -0.2520 0.8501 0.4624
vn 0.2520 0.8501 0.4624
vn -0.8389 -0.0000 0.5443
vn -0.8501 -0.2520 0.4624
vn -0.8501 0.2520 0.4624
vn -0.9104 -0.0000 0.4138
vn -0.0000 0.9104 0.4138
vn -0.0000 -0.9104 0.4138
vn 0.9104 -0.0000 0.4138
vt 0.375000 0.000000
vt 0.375000 1.000000
vt 0.125000 0.750000
vt 0.625000 0.000000
vt 0.625000 1.000000
vt 0.875000 0.750000
vt 0.487676 0.362676
vt 0.512324 0.362676
vt 0.375000 0.750000
vt 0.625000 0.750000
vt 0.487676 0.387324
vt 0.512324 0.387324
vt 0.875000 0.500000
vt 0.625000 0.250000
vt 0.125000 0.500000
vt 0.375000 0.250000
vt 0.375000 0.500000
vt 0.625000 0.500000
vt 0.518888 0.326139
vt 0.481112 0.326139
vt 0.426167 0.271194
vt 0.573833 0.271194
vt 0.451139 0.356112
vt 0.451139 0.393888
vt 0.396194 0.448833
vt 0.396194 0.301167
vt 0.548861 0.393888
vt 0.548861 0.356112
vt 0.603806 0.301167
vt 0.603806 0.448833
vt 0.481112 0.423861
vt 0.518888 0.423861
vt 0.573833 0.478806
vt 0.426167 0.478806
vt 0.527667 0.347333
vt 0.472333 0.347333
vt 0.472333 0.402667
vt 0.527667 0.402667
s 0
f 1/1/1 2/4/1 9/14/1 10/16/1
f 3/7/2 4/8/2 8/12/2 7/11/2
f 11/17/3 12/18/3 6/10/3 5/9/3
f 5/9/4 6/10/4 2/5/4 1/2/4
f 10/15/5 11/17/5 5/9/5 1/3/5
f 12/18/6 9/13/6 2/6/6 6/10/6
f 13/19/7 14/20/7 15/21/7 16/22/7
f 17/23/8 18/24/8 19/25/8 20/26/8
f 21/27/9 22/28/9 23/29/9 24/30/9
f 25/31/10 26/32/10 27/33/10 28/34/10
f 29/35/11 30/36/11 14/20/11 13/19/11
f 30/36/12 10/16/12 15/21/12 14/20/12
f 10/16/2 9/14/2 16/22/2 15/21/2
f 9/14/13 29/35/13 13/19/13 16/22/13
f 30/36/14 31/37/14 18/24/14 17/23/14
f 31/37/15 11/17/15 19/25/15 18/24/15
f 11/17/2 10/16/2 20/26/2 19/25/2
f 10/16/16 30/36/16 17/23/16 20/26/16
f 32/38/17 29/35/17 22/28/17 21/27/17
f 29/35/18 9/14/18 23/29/18 22/28/18
f 9/14/2 12/18/2 24/30/2 23/29/2
f 12/18/19 32/38/19 21/27/19 24/30/19
f 31/37/20 32/38/20 26/32/20 25/31/20
f 32/38/21 12/18/21 27/33/21 26/32/21
f 12/18/2 11/17/2 28/34/2 27/33/2
f 11/17/22 31/37/22 25/31/22 28/34/22
f 4/8/23 3/7/23 30/36/23 29/35/23
f 3/7/24 7/11/24 31/37/24 30/36/24
f 8/12/25 4/8/25 29/35/25 32/38/25
f 7/11/26 8/12/26 32/38/26 31/37/26
