# Blender 3.5.0
# www.blender.org
mtllib Strong.mtl
o Cube
v 1.000000 1.000000 -1.000000
v 1.000000 -1.000000 -1.000000
v 1.000000 1.000000 1.000000
v 1.000000 -1.000000 1.000000
v -1.000000 1.000000 -1.000000
v -1.000000 -1.000000 -1.000000
v -1.000000 1.000000 1.000000
v -1.000000 -1.000000 1.000000
v -1.629596 -0.678998 -0.678998
v -1.629596 -0.678998 0.678998
v -1.629596 0.678998 0.678998
v -1.629596 0.678998 -0.678998
v 0.678998 -0.678998 -1.629596
v -0.678998 -0.678998 -1.629596
v 0.678998 0.678998 -1.629596
v -0.678998 0.678998 -1.629596
v 1.629596 0.678998 -0.678998
v 1.629596 -0.678998 -0.678998
v 1.629596 0.678998 0.678998
v 1.629596 -0.678998 0.678998
v -0.678998 -0.678998 1.629596
v -0.678998 0.678998 1.629596
v 0.678998 0.678998 1.629596
v 0.678998 -0.678998 1.629596
vn -0.0000 1.0000 -0.0000
vn -0.8909 -0.0000 0.4542
vn -0.4542 -0.8909 -0.0000
vn -0.0000 -1.0000 -0.0000
vn 0.4542 -0.0000 -0.8909
vn 0.8909 -0.0000 -0.4542
vn -1.0000 -0.0000 -0.0000
vn -0.4542 0.8909 -0.0000
vn -0.4542 -0.0000 -0.8909
vn -0.4542 -0.0000 0.8909
vn -0.0000 -0.0000 -1.0000
vn -0.8909 -0.0000 -0.4542
vn -0.0000 -0.8909 -0.4542
vn -0.0000 0.8909 -0.4542
vn 1.0000 -0.0000 -0.0000
vn 0.4542 -0.8909 -0.0000
vn 0.4542 0.8909 -0.0000
vn 0.4542 -0.0000 0.8909
vn -0.0000 -0.0000 1.0000
vn -0.0000 -0.8909 0.4542
vn -0.0000 0.8909 0.4542
vn 0.8909 -0.0000 0.4542
vt 0.625000 0.500000
vt 0.375000 0.500000
vt 0.625000 0.750000
vt 0.375000 0.750000
vt 0.625000 0.250000
vt 0.875000 0.500000
vt 0.375000 0.250000
vt 0.125000 0.500000
vt 0.625000 1.000000
vt 0.875000 0.750000
vt 0.375000 1.000000
vt 0.125000 0.750000
vt 0.125000 0.500000
vt 0.375000 0.250000
vt 0.125000 0.750000
vt 0.375000 0.000000
vt 0.375000 1.000000
vt 0.625000 0.000000
vt 0.875000 0.750000
vt 0.625000 1.000000
vt 0.875000 0.500000
vt 0.625000 0.250000
vt 0.375000 0.500000
vt 0.375000 0.250000
vt 0.125000 0.500000
vt 0.625000 0.500000
vt 0.625000 0.250000
vt 0.875000 0.500000
vt 0.625000 0.500000
vt 0.375000 0.500000
vt 0.625000 0.750000
vt 0.375000 0.750000
vt 0.375000 1.000000
vt 0.125000 0.750000
vt 0.625000 1.000000
vt 0.875000 0.750000
vt 0.625000 0.750000
vt 0.375000 0.750000
s 0
usemtl Material
f 1/1/1 5/6/1 7/10/1 3/3/1
f 7/9/2 8/11/2 21/33/2 22/35/2
f 6/8/3 8/12/3 10/15/3 9/13/3
f 6/8/4 2/2/4 4/4/4 8/12/4
f 2/2/5 1/1/5 17/29/5 18/30/5
f 1/1/6 2/2/6 13/23/6 15/26/6
f 10/16/7 11/18/7 12/22/7 9/14/7
f 7/10/8 5/6/8 12/21/8 11/19/8
f 5/5/9 6/7/9 9/14/9 12/22/9
f 8/11/10 7/9/10 11/20/10 10/17/10
f 14/24/11 16/27/11 15/26/11 13/23/11
f 6/7/12 5/5/12 16/27/12 14/24/12
f 2/2/13 6/8/13 14/25/13 13/23/13
f 5/6/14 1/1/14 15/26/14 16/28/14
f 18/30/15 17/29/15 19/31/15 20/32/15
f 4/4/16 2/2/16 18/30/16 20/32/16
f 1/1/17 3/3/17 19/31/17 17/29/17
f 3/3/18 4/4/18 20/32/18 19/31/18
f 24/38/19 23/37/19 22/35/19 21/33/19
f 8/12/20 4/4/20 24/38/20 21/34/20
f 3/3/21 7/10/21 22/36/21 23/37/21
f 4/4/22 3/3/22 23/37/22 24/38/22
